<svg width="28" height="28" viewBox="0 0 28 28" fill="none" xmlns="http://www.w3.org/2000/svg">
<g id="vuesax/bold/verify">
<g id="verify">
<path id="Vector" d="M25.1501 12.5306L23.5634 10.6873C23.2601 10.3373 23.0151 9.68397 23.0151 9.2173V7.23397C23.0151 5.9973 22.0001 4.9823 20.7634 4.9823H18.7801C18.3251 4.9823 17.6601 4.7373 17.3101 4.43397L15.4668 2.8473C14.6618 2.15897 13.3434 2.15897 12.5268 2.8473L10.6951 4.44564C10.3451 4.7373 9.6801 4.9823 9.2251 4.9823H7.20677C5.9701 4.9823 4.9551 5.9973 4.9551 7.23397V9.22897C4.9551 9.68397 4.7101 10.3373 4.41844 10.6873L2.84344 12.5423C2.16677 13.3473 2.16677 14.654 2.84344 15.459L4.41844 17.314C4.7101 17.664 4.9551 18.3173 4.9551 18.7723V20.7673C4.9551 22.004 5.9701 23.019 7.20677 23.019H9.2251C9.6801 23.019 10.3451 23.264 10.6951 23.5673L12.5384 25.154C13.3434 25.8423 14.6618 25.8423 15.4784 25.154L17.3218 23.5673C17.6718 23.264 18.3251 23.019 18.7918 23.019H20.7751C22.0118 23.019 23.0268 22.004 23.0268 20.7673V18.784C23.0268 18.329 23.2718 17.664 23.5751 17.314L25.1618 15.4706C25.8384 14.6656 25.8384 13.3356 25.1501 12.5306ZM18.8501 11.7956L13.2151 17.4306C13.0518 17.594 12.8301 17.6873 12.5968 17.6873C12.3634 17.6873 12.1418 17.594 11.9784 17.4306L9.1551 14.6073C8.81677 14.269 8.81677 13.709 9.1551 13.3706C9.49344 13.0323 10.0534 13.0323 10.3918 13.3706L12.5968 15.5756L17.6134 10.559C17.9518 10.2206 18.5118 10.2206 18.8501 10.559C19.1884 10.8973 19.1884 11.4573 18.8501 11.7956Z" fill="url(#paint0_linear_512_1655)"/>
</g>
</g>
<defs>
<linearGradient id="paint0_linear_512_1655" x1="-1.87462" y1="-4.2153" x2="30.8776" y2="-0.212327" gradientUnits="userSpaceOnUse">
<stop stop-color="#75CF3C"/>
<stop offset="1" stop-color="#0A9D4E"/>
</linearGradient>
</defs>
</svg>
